<svg version="1.1" id="cancel-tag" xmlns="http://www.w3.org/2000/svg" xmlns:xlink="http://www.w3.org/1999/xlink" x="0px" y="0px"
	 width="512px" height="512px" viewBox="0 0 512 512" style="enable-background:new 0 0 512 512;" xml:space="preserve">
<style type="text/css">
.st0 {fill:#fff}
.st1 {fill:none}
.st2 {fill:#fff}
#cancel-tag:hover .st1{
	fill:#fff;
	transition: .7s
}
#cancel-tag:hover .st2{
	fill:#009ae7;
	transition: .7s
}
</style>
<g>
	<path class="st0" d="M237,1c13.333,0,26.666,0,40,0c12.145,1.902,24.532,2.845,36.395,5.857c96.694,24.554,160.403,84.49,190.01,179.789
		c5.037,16.213,6.488,33.541,9.596,50.354c0,13.333,0,26.667,0,40c-0.204,1.138-0.502,2.267-0.598,3.413
		c-2.134,25.408-7.834,50.022-17.903,73.413c-34.332,79.748-93.524,130.869-177.718,152.454C303.8,509.608,290.273,510.813,277,513
		c-13.334,0-26.667,0-40,0c-12.145-1.902-24.532-2.845-36.395-5.857c-96.693-24.554-160.403-84.49-190.009-179.789
		C5.559,311.141,4.107,293.812,1,277c0-13.333,0-26.667,0-40c0.204-1.138,0.502-2.267,0.598-3.413
		c2.133-25.408,7.833-50.022,17.903-73.413C53.833,80.426,113.025,29.305,197.219,7.72C210.2,4.392,223.726,3.187,237,1z
		 M256.852,491.767c129.839,0.092,234.593-104.362,234.915-234.243C492.09,127.518,387.464,22.48,257.398,22.233
		C127.385,21.986,22.402,126.669,22.233,256.727C22.064,386.748,126.803,491.675,256.852,491.767z"/>
	<path class="st1" d="M256.852,491.767c-130.048-0.092-234.788-105.019-234.618-235.04
		c0.169-130.058,105.152-234.74,235.165-234.493c130.065,0.247,234.691,105.284,234.368,235.29
		C491.444,387.404,386.69,491.858,256.852,491.767z M167.265,154.614c-8.424-0.086-13.285,4.115-12.44,10.167
		c0.522,3.749,2.749,7.872,5.446,10.609c25.264,25.642,50.797,51.019,76.248,76.477c5.118,5.12,5.12,5.144,0.062,10.202
		c-25.215,25.225-50.452,50.428-75.629,75.689c-1.976,1.982-3.97,4.145-5.244,6.593c-3.749,7.205,1.217,15.568,9.208,14.831
		c3.564-0.329,7.583-2.595,10.209-5.185c25.753-25.391,51.254-51.037,76.833-76.605c5.033-5.031,5.057-5.028,10.202,0.115
		c25.224,25.216,50.427,50.453,75.69,75.628c1.98,1.975,4.16,3.957,6.617,5.208c7.225,3.68,15.518-1.377,14.719-9.384
		c-0.356-3.563-2.674-7.542-5.273-10.178c-25.395-25.748-51.041-51.25-76.607-76.829c-4.918-4.919-4.92-4.984-0.06-9.847
		c25.214-25.226,50.45-50.429,75.631-75.687c1.979-1.986,4.001-4.114,5.315-6.547c3.971-7.354-1.127-15.921-9.355-15.061
		c-3.561,0.372-7.502,2.753-10.146,5.36c-25.508,25.164-50.777,50.571-76.117,75.906c-5.568,5.568-5.577,5.567-11.264-0.118
		c-25.34-25.335-50.629-50.721-76.085-75.938C172.541,157.365,168.886,155.691,167.265,154.614z"/>
	<path class="st2" d="M167.265,154.614c1.621,1.077,5.276,2.751,7.958,5.408c25.456,25.218,50.746,50.604,76.085,75.938
		c5.687,5.686,5.696,5.687,11.264,0.118c25.34-25.335,50.609-50.742,76.117-75.906c2.645-2.607,6.586-4.988,10.146-5.36
		c8.229-0.86,13.326,7.707,9.355,15.061c-1.314,2.433-3.336,4.561-5.315,6.547c-25.181,25.258-50.417,50.461-75.631,75.687
		c-4.86,4.862-4.858,4.928,0.06,9.847c25.566,25.579,51.213,51.081,76.607,76.829c2.6,2.636,4.917,6.614,5.273,10.178
		c0.799,8.007-7.494,13.063-14.719,9.384c-2.457-1.251-4.637-3.233-6.617-5.208c-25.264-25.175-50.467-50.412-75.69-75.628
		c-5.146-5.144-5.169-5.146-10.202-0.115c-25.579,25.568-51.079,51.215-76.833,76.605c-2.626,2.59-6.645,4.855-10.209,5.185
		c-7.991,0.737-12.957-7.626-9.208-14.831c1.274-2.448,3.268-4.61,5.244-6.593c25.178-25.262,50.414-50.465,75.629-75.689
		c5.057-5.059,5.056-5.082-0.062-10.202c-25.45-25.458-50.983-50.835-76.248-76.477c-2.697-2.737-4.924-6.86-5.446-10.609
		C153.98,158.729,158.841,154.528,167.265,154.614z"/>
</g>
</svg>
