<svg version="1.1" id="finish-tag" xmlns="http://www.w3.org/2000/svg" xmlns:xlink="http://www.w3.org/1999/xlink" x="0px" y="0px"
	 width="511.936px" height="511.936px" viewBox="0 0 511.936 511.936" style="enable-background:new 0 0 511.936 511.936;"
	 xml:space="preserve">
<style type="text/css">
.st0 {fill:#fff}
.st1 {fill:none}
.st2 {fill:#fff}
#finish-tag:hover .st1{
	fill:#fff;
	transition: .7s
}
#finish-tag:hover .st2{
	fill:#009ae7;
	transition: .7s
}
</style>
<g>
	<path class="st0" d="M276.965,1c13.435,2.223,27.132,3.429,40.259,6.836c84.513,21.931,143.849,73.447,177.78,153.807
		c14.879,35.235,20.391,72.395,18.004,110.464c-3.628,57.898-24.349,109.158-62.507,152.979
		c-38.386,44.082-86.342,72.567-143.806,83.303c-81.785,15.281-155.125-4.101-218.29-58.428
		c-47.845-41.152-75.569-93.938-85.373-156.188c-0.877-5.57-1.364-11.203-2.033-16.808c0-13.331,0-26.663,0-39.995
		c0.204-0.804,0.536-1.598,0.595-2.411c1.825-25.281,7.502-49.75,17.362-73.012C52.985,81.27,112.24,29.744,196.726,7.833
		C209.849,4.429,223.541,3.222,236.97,1C250.302,1,263.633,1,276.965,1z M256.887,22.181
		C127.018,22.234,22.377,126.779,22.18,256.673c-0.197,130.015,104.549,234.969,234.618,235.082
		c130.03,0.114,234.927-104.688,234.957-234.742C491.785,126.97,386.925,22.126,256.887,22.181z"/>

	<path class="st1" d="M256.887,22.181c130.038-0.055,234.898,104.79,234.868,234.832c-0.03,130.055-104.927,234.856-234.957,234.742
		C126.729,491.642,21.983,386.688,22.18,256.673C22.377,126.779,127.018,22.234,256.887,22.181z M235.057,332.805
		c-8.654-7.848-16.667-15.095-24.661-22.364c-16.261-14.787-32.523-29.574-48.758-44.39c-3.908-3.567-8.151-5.931-13.561-3.867
		c-8.344,3.184-9.607,13.311-2.322,19.953c27.194,24.789,54.449,49.512,81.745,74.188c8.279,7.485,14.921,6.55,20.939-2.808
		c27.1-42.139,54.165-84.302,81.234-126.46c11.871-18.489,23.84-36.917,35.473-55.555c2.002-3.207,3.565-7.344,3.508-11.023
		c-0.081-5.106-3.817-8.383-8.986-9.238c-5.956-0.985-9.683,2.38-12.646,7.007c-31.692,49.477-63.389,98.952-95.094,148.419
		C246.462,315.194,240.945,323.686,235.057,332.805z"/>
	<path class="st2" d="M235.057,332.805c5.888-9.119,11.405-17.61,16.87-26.137c31.706-49.468,63.402-98.942,95.094-148.419
		c2.964-4.626,6.69-7.992,12.646-7.007c5.169,0.855,8.905,4.132,8.986,9.238c0.058,3.679-1.506,7.816-3.508,11.023
		c-11.633,18.637-23.602,37.065-35.473,55.555c-27.069,42.158-54.134,84.321-81.234,126.46c-6.018,9.357-12.66,10.293-20.939,2.808
		c-27.296-24.677-54.551-49.399-81.745-74.188c-7.285-6.643-6.022-16.77,2.322-19.953c5.41-2.063,9.653,0.3,13.561,3.867
		c16.235,14.815,32.497,29.603,48.758,44.39C218.389,317.71,226.402,324.957,235.057,332.805z"/>
</g>
</svg>
